<?xml version="1.0" encoding="utf-8"?>
<!-- Generator: Adobe Illustrator 15.1.0, SVG Export Plug-In . SVG Version: 6.00 Build 0)  -->
<!DOCTYPE svg PUBLIC "-//W3C//DTD SVG 1.1//EN" "http://www.w3.org/Graphics/SVG/1.1/DTD/svg11.dtd">
<svg version="1.1" id="레이어_1" xmlns="http://www.w3.org/2000/svg" xmlns:xlink="http://www.w3.org/1999/xlink" x="0px"
	 y="0px" width="450px" height="450px" viewBox="0 0 450 450" enable-background="new 0 0 450 450" xml:space="preserve">
<ellipse fill="#004FA2" cx="224.715" cy="224.715" rx="224.715" ry="224.708"/>
<g enable-background="new    ">
	<path fill="#FFFFFF" d="M114.632,141.611c0,8.539-1.495,15.917-4.483,22.13c-2.989,6.216-7.141,11.41-12.453,15.584
		c-5.314,4.177-11.624,7.379-18.928,9.606c-7.307,2.23-15.277,3.583-23.91,4.057v-17.221c4.743-0.474,9.558-1.257,14.445-2.349
		c4.886-1.09,9.322-2.751,13.307-4.98c3.985-2.229,7.258-5.195,9.82-8.896c2.562-3.7,3.889-8.348,3.985-13.947v-1.423H56.566
		v-15.939h58.066V141.611z M112.782,187.864c4.839,0,9.369,0.783,13.591,2.349c4.221,1.565,7.899,3.843,11.03,6.831
		c3.131,2.989,5.597,6.618,7.4,10.888c1.801,4.27,2.704,9.108,2.704,14.517s-0.903,10.269-2.704,14.588
		c-1.803,4.315-4.27,7.97-7.4,10.958s-6.809,5.288-11.03,6.902c-4.223,1.612-8.752,2.42-13.591,2.42
		c-4.746,0-9.204-0.808-13.378-2.42c-4.176-1.614-7.828-3.914-10.958-6.902c-3.131-2.988-5.6-6.643-7.401-10.958
		c-1.803-4.319-2.704-9.18-2.704-14.588s0.901-10.247,2.704-14.517c1.801-4.27,4.27-7.898,7.401-10.888
		c3.131-2.988,6.782-5.266,10.958-6.831C103.578,188.647,108.037,187.864,112.782,187.864z M112.782,241.092
		c2.466,0,4.768-0.498,6.902-1.494s4.007-2.326,5.622-3.985c1.612-1.661,2.869-3.629,3.771-5.906c0.9-2.277,1.352-4.696,1.352-7.258
		s-0.452-4.957-1.352-7.188c-0.903-2.229-2.159-4.174-3.771-5.835c-1.614-1.659-3.487-2.964-5.622-3.914
		c-2.135-0.947-4.437-1.423-6.902-1.423c-2.373,0-4.625,0.476-6.76,1.423c-2.135,0.95-3.985,2.255-5.55,3.914
		c-1.565,1.661-2.8,3.606-3.7,5.835c-0.903,2.23-1.352,4.626-1.352,7.188s0.449,4.98,1.352,7.258c0.9,2.277,2.135,4.245,3.7,5.906
		c1.565,1.659,3.416,2.989,5.55,3.985S110.409,241.092,112.782,241.092z M136.407,195.264v-15.228h-20.636v-15.086h20.636v-9.962
		h-17.79v-15.086h17.79v-11.67h16.793v67.031H136.407z"/>
	<path fill="#FFFFFF" d="M235.46,141.611c0,8.539-1.565,15.917-4.696,22.13c-3.131,6.216-7.45,11.41-12.951,15.584
		c-5.504,4.177-11.979,7.379-19.426,9.606c-7.45,2.23-15.491,3.583-24.123,4.057v-17.221c4.743-0.474,9.628-1.257,14.659-2.349
		c5.028-1.09,9.629-2.751,13.805-4.98c4.174-2.229,7.614-5.195,10.318-8.896s4.103-8.348,4.198-13.947v-1.423h-41.272v-15.939
		h59.489V141.611z M233.609,187.864c4.84,0,9.369,0.783,13.592,2.349c4.221,1.565,7.898,3.843,11.029,6.831
		c3.131,2.989,5.598,6.618,7.401,10.888c1.801,4.27,2.704,9.108,2.704,14.517s-0.903,10.269-2.704,14.588
		c-1.804,4.315-4.271,7.97-7.401,10.958s-6.809,5.288-11.029,6.902c-4.223,1.612-8.752,2.42-13.592,2.42
		c-4.745,0-9.204-0.808-13.377-2.42c-4.176-1.614-7.828-3.914-10.958-6.902s-5.6-6.643-7.4-10.958
		c-1.804-4.319-2.704-9.18-2.704-14.588s0.9-10.247,2.704-14.517c1.801-4.27,4.27-7.898,7.4-10.888
		c3.131-2.988,6.782-5.266,10.958-6.831C224.406,188.647,228.864,187.864,233.609,187.864z M233.609,241.092
		c2.467,0,4.768-0.498,6.902-1.494s4.008-2.326,5.622-3.985c1.612-1.661,2.868-3.629,3.771-5.906
		c0.901-2.277,1.353-4.696,1.353-7.258s-0.451-4.957-1.353-7.188c-0.903-2.229-2.159-4.174-3.771-5.835
		c-1.614-1.659-3.487-2.964-5.622-3.914c-2.135-0.947-4.436-1.423-6.902-1.423c-2.372,0-4.625,0.476-6.76,1.423
		c-2.135,0.95-3.985,2.255-5.55,3.914c-1.565,1.661-2.8,3.606-3.7,5.835c-0.903,2.23-1.352,4.626-1.352,7.188
		s0.449,4.98,1.352,7.258c0.9,2.277,2.135,4.245,3.7,5.906c1.565,1.659,3.416,2.989,5.55,3.985S231.237,241.092,233.609,241.092z
		 M254.389,190.995v-62.762h16.793v21.774h17.506v15.797h-17.506v25.19H254.389z"/>
	<path fill="#FFFFFF" d="M363.971,194.696c-8.539-1.328-15.68-3.701-21.418-7.116c-5.742-3.416-10.367-7.543-13.877-12.382
		c-3.322,4.839-7.805,8.966-13.449,12.382c-5.646,3.415-12.69,5.788-21.134,7.116v-17.079c5.124-0.947,9.368-2.419,12.737-4.411
		c3.367-1.993,6-4.388,7.898-7.188c1.897-2.798,3.225-5.857,3.985-9.18c0.759-3.32,1.139-6.782,1.139-10.389v-18.217h16.937v18.217
		c0,3.606,0.449,7.068,1.352,10.389c0.9,3.322,2.395,6.382,4.482,9.18c2.086,2.8,4.887,5.194,8.396,7.188
		c3.51,1.992,7.828,3.464,12.951,4.411V194.696z M305.764,251.623v-46.396h16.793v30.599h76.709v15.797H305.764z M381.049,216.185
		v-53.512h-24.904v-15.797h24.904v-18.644h16.795v87.952H381.049z"/>
</g>
<g enable-background="new    ">
	<path fill="#FFFFFF" d="M59.874,299.525v17.782c-3.598,1.302-7.315,1.953-11.152,1.953c-8.668,0-14.322-3.393-16.959-10.176
		c-0.892-2.228-1.336-4.659-1.336-7.298c0-5.653,1.833-10.125,5.499-13.414c3.46-3.151,8.018-4.728,13.67-4.728
		c3.837,0,6.938,0.6,9.302,1.798l-1.542,5.242c-2.295-0.993-4.917-1.49-7.863-1.49c-3.872,0-6.93,1.105-9.174,3.315
		c-2.244,2.209-3.366,5.199-3.366,8.968c0,3.7,1.054,6.681,3.161,8.942c2.107,2.261,5.044,3.392,8.814,3.392
		c2.192,0,3.803-0.205,4.831-0.616v-8.377h-6.219v-5.294H59.874z"/>
	<path fill="#FFFFFF" d="M62.442,293.512h6.887l4.728,13.773l1.285,4.266l1.336-4.317l4.163-13.722h6.732l-6.527,17.576
		c-1.439,3.803-2.604,6.63-3.495,8.479c-1.611,3.393-3.341,5.876-5.191,7.452c-2.09,1.815-4.249,2.844-6.476,3.084l-1.542-5.499
		c1.61-0.378,3.066-1.114,4.368-2.21c1.302-1.097,2.295-2.33,2.981-3.7c0.206-0.445,0.308-0.736,0.308-0.874
		c0-0.206-0.086-0.548-0.257-1.028L62.442,293.512z"/>
	<path fill="#FFFFFF" d="M111.779,308.056h-16.6c0,1.885,0.719,3.409,2.158,4.574c1.336,1.097,3.135,1.645,5.396,1.645
		c2.364,0,4.659-0.394,6.887-1.183l1.079,4.677c-2.639,1.098-5.568,1.645-8.788,1.645c-3.906,0-7.007-1.139-9.302-3.417
		c-2.296-2.278-3.443-5.422-3.443-9.431c0-3.939,1.062-7.16,3.187-9.662c2.192-2.638,5.173-3.957,8.942-3.957
		c3.425,0,6.098,1.182,8.017,3.546c1.815,2.262,2.724,5.174,2.724,8.737C112.036,306.052,111.95,306.995,111.779,308.056z
		 M95.179,303.225h10.946c0-1.473-0.411-2.724-1.233-3.752c-0.925-1.233-2.261-1.85-4.008-1.85c-1.645,0-2.964,0.583-3.958,1.747
		C95.932,300.536,95.35,301.821,95.179,303.225z"/>
	<path fill="#FFFFFF" d="M127.762,319.466c-3.734,0-6.75-1.208-9.045-3.623c-2.296-2.416-3.443-5.559-3.443-9.431
		c0-4.009,1.156-7.246,3.469-9.713c2.313-2.467,5.422-3.701,9.328-3.701c3.769,0,6.784,1.2,9.045,3.598
		c2.262,2.399,3.392,5.517,3.392,9.354c0,4.009-1.165,7.265-3.495,9.765C134.682,318.216,131.599,319.466,127.762,319.466z
		 M127.762,314.584c2.056,0,3.666-0.926,4.831-2.775c0.959-1.576,1.439-3.443,1.439-5.603c0-2.191-0.462-4.042-1.388-5.55
		c-1.097-1.851-2.69-2.775-4.779-2.775c-2.125,0-3.751,0.925-4.882,2.775c-0.925,1.508-1.388,3.392-1.388,5.653
		c0,2.158,0.462,4.009,1.388,5.55C124.113,313.676,125.706,314.584,127.762,314.584z"/>
	<path fill="#FFFFFF" d="M145.44,318.9v-17.73c0-0.855-0.035-2.081-0.103-3.675c-0.069-1.593-0.103-2.92-0.103-3.982h5.448
		l0.308,3.494c1.645-2.672,4.299-4.009,7.966-4.009c2.946,0,5.19,1.08,6.732,3.238c1.473,1.919,2.21,4.454,2.21,7.606V318.9h-6.219
		v-14.03c0-4.316-1.593-6.476-4.779-6.476c-1.131,0-2.151,0.352-3.058,1.054c-0.908,0.703-1.551,1.585-1.927,2.646
		c-0.172,0.583-0.257,1.233-0.257,1.953V318.9H145.44z"/>
	<path fill="#FFFFFF" d="M196.884,300.965v14.184c0,5.346-1.268,9.148-3.803,11.409c-2.228,1.987-5.396,2.981-9.508,2.981
		c-3.597,0-6.527-0.703-8.788-2.107l1.439-5.036c2.261,1.336,4.677,2.004,7.247,2.004c4.796,0,7.195-2.313,7.195-6.938v-2.005
		c-1.542,2.228-3.975,3.341-7.298,3.341c-3.255,0-5.876-1.233-7.863-3.7c-1.85-2.364-2.775-5.259-2.775-8.686
		c0-3.666,0.977-6.784,2.929-9.354c2.124-2.706,4.951-4.061,8.48-4.061c3.357,0,5.722,1.2,7.092,3.598l0.411-3.083h5.499
		C196.969,295.26,196.884,297.744,196.884,300.965z M190.666,307.8v-3.957c0-0.72-0.086-1.268-0.257-1.645
		c-0.789-2.741-2.518-4.112-5.191-4.112c-2.056,0-3.632,0.909-4.728,2.725c-0.925,1.438-1.388,3.237-1.388,5.396
		c0,2.057,0.463,3.804,1.388,5.242c1.062,1.542,2.638,2.313,4.728,2.313c2.57,0,4.283-1.268,5.14-3.804
		C190.563,309.41,190.666,308.691,190.666,307.8z"/>
	<path fill="#FFFFFF" d="M225.87,300.965v14.184c0,5.346-1.268,9.148-3.803,11.409c-2.228,1.987-5.396,2.981-9.508,2.981
		c-3.597,0-6.527-0.703-8.788-2.107l1.439-5.036c2.261,1.336,4.677,2.004,7.247,2.004c4.796,0,7.195-2.313,7.195-6.938v-2.005
		c-1.542,2.228-3.975,3.341-7.298,3.341c-3.255,0-5.876-1.233-7.863-3.7c-1.85-2.364-2.775-5.259-2.775-8.686
		c0-3.666,0.977-6.784,2.929-9.354c2.124-2.706,4.951-4.061,8.48-4.061c3.357,0,5.722,1.2,7.092,3.598l0.411-3.083h5.499
		C225.955,295.26,225.87,297.744,225.87,300.965z M219.651,307.8v-3.957c0-0.72-0.086-1.268-0.257-1.645
		c-0.789-2.741-2.518-4.112-5.191-4.112c-2.056,0-3.632,0.909-4.728,2.725c-0.925,1.438-1.388,3.237-1.388,5.396
		c0,2.057,0.463,3.804,1.388,5.242c1.062,1.542,2.638,2.313,4.728,2.313c2.57,0,4.283-1.268,5.14-3.804
		C219.549,309.41,219.651,308.691,219.651,307.8z"/>
	<path fill="#FFFFFF" d="M251.515,303.534v9.045c0,2.569,0.154,4.677,0.463,6.321h-5.757l-0.41-2.621
		c-1.748,2.125-4.181,3.187-7.299,3.187c-2.261,0-4.145-0.685-5.652-2.056c-1.508-1.37-2.262-3.203-2.262-5.499
		c0-3.666,1.713-6.321,5.14-7.966c2.501-1.164,5.67-1.747,9.508-1.747v-0.36c0-2.706-1.663-4.06-4.985-4.06
		c-2.467,0-4.694,0.668-6.682,2.004l-1.387-4.471c2.604-1.542,5.652-2.313,9.147-2.313
		C248.123,292.998,251.515,296.51,251.515,303.534z M245.451,310.06v-3.34c-5.757,0-8.635,1.49-8.635,4.471
		c0,2.296,1.164,3.443,3.494,3.443c1.337,0,2.527-0.444,3.572-1.336C244.928,312.408,245.451,311.329,245.451,310.06z"/>
	<path fill="#FFFFFF" d="M257.887,318.9v-17.73c0-0.855-0.034-2.081-0.102-3.675c-0.07-1.593-0.104-2.92-0.104-3.982h5.447
		l0.309,3.494c1.645-2.672,4.299-4.009,7.967-4.009c2.945,0,5.189,1.08,6.732,3.238c1.473,1.919,2.209,4.454,2.209,7.606V318.9
		h-6.219v-14.03c0-4.316-1.593-6.476-4.779-6.476c-1.131,0-2.15,0.352-3.058,1.054c-0.908,0.703-1.551,1.585-1.927,2.646
		c-0.172,0.583-0.258,1.233-0.258,1.953V318.9H257.887z"/>
	<path fill="#FFFFFF" d="M309.331,300.965v14.184c0,5.346-1.269,9.148-3.804,11.409c-2.227,1.987-5.396,2.981-9.508,2.981
		c-3.597,0-6.526-0.703-8.787-2.107l1.438-5.036c2.261,1.336,4.677,2.004,7.247,2.004c4.796,0,7.194-2.313,7.194-6.938v-2.005
		c-1.542,2.228-3.975,3.341-7.298,3.341c-3.256,0-5.877-1.233-7.863-3.7c-1.85-2.364-2.775-5.259-2.775-8.686
		c0-3.666,0.977-6.784,2.93-9.354c2.124-2.706,4.951-4.061,8.48-4.061c3.357,0,5.721,1.2,7.092,3.598l0.411-3.083h5.499
		C309.416,295.26,309.331,297.744,309.331,300.965z M303.112,307.8v-3.957c0-0.72-0.086-1.268-0.257-1.645
		c-0.789-2.741-2.518-4.112-5.191-4.112c-2.055,0-3.631,0.909-4.728,2.725c-0.925,1.438-1.388,3.237-1.388,5.396
		c0,2.057,0.463,3.804,1.388,5.242c1.062,1.542,2.638,2.313,4.728,2.313c2.57,0,4.283-1.268,5.141-3.804
		C303.01,309.41,303.112,308.691,303.112,307.8z"/>
	<path fill="#FFFFFF" d="M331.482,318.9v-34.896h6.217v29.396h14.186v5.499H331.482z"/>
	<path fill="#FFFFFF" d="M359.129,290.223c-1.061,0-1.926-0.325-2.594-0.977c-0.668-0.65-1.002-1.576-1.002-2.775
		c0-1.164,0.35-2.081,1.053-2.75c0.701-0.668,1.584-1.002,2.646-1.002s1.943,0.334,2.646,1.002c0.703,0.669,1.055,1.586,1.055,2.75
		c0,1.165-0.369,2.081-1.105,2.749C361.09,289.889,360.191,290.223,359.129,290.223z M362.367,318.9h-6.27v-25.388h6.27V318.9z"/>
	<path fill="#FFFFFF" d="M368.895,318.9v-17.73c0-0.855-0.035-2.081-0.104-3.675c-0.068-1.593-0.102-2.92-0.102-3.982h5.447
		l0.309,3.494c1.645-2.672,4.299-4.009,7.965-4.009c2.947,0,5.191,1.08,6.732,3.238c1.473,1.919,2.211,4.454,2.211,7.606V318.9
		h-6.219v-14.03c0-4.316-1.594-6.476-4.779-6.476c-1.131,0-2.15,0.352-3.059,1.054c-0.908,0.703-1.551,1.585-1.928,2.646
		c-0.172,0.583-0.256,1.233-0.256,1.953V318.9H368.895z"/>
	<path fill="#FFFFFF" d="M418.797,308.056h-16.602c0,1.885,0.721,3.409,2.16,4.574c1.336,1.097,3.135,1.645,5.395,1.645
		c2.365,0,4.66-0.394,6.887-1.183l1.08,4.677c-2.639,1.098-5.568,1.645-8.789,1.645c-3.904,0-7.006-1.139-9.301-3.417
		c-2.297-2.278-3.443-5.422-3.443-9.431c0-3.939,1.061-7.16,3.186-9.662c2.193-2.638,5.174-3.957,8.943-3.957
		c3.426,0,6.098,1.182,8.018,3.546c1.814,2.262,2.723,5.174,2.723,8.737C419.053,306.052,418.967,306.995,418.797,308.056z
		 M402.195,303.225h10.947c0-1.473-0.41-2.724-1.232-3.752c-0.926-1.233-2.262-1.85-4.01-1.85c-1.645,0-2.963,0.583-3.957,1.747
		C402.949,300.536,402.367,301.821,402.195,303.225z"/>
</g>
</svg>
