<?xml version="1.0" encoding="utf-8"?>
<!-- Generator: Adobe Illustrator 15.1.0, SVG Export Plug-In . SVG Version: 6.00 Build 0)  -->
<!DOCTYPE svg PUBLIC "-//W3C//DTD SVG 1.1//EN" "http://www.w3.org/Graphics/SVG/1.1/DTD/svg11.dtd">
<svg version="1.1" id="레이어_1" xmlns="http://www.w3.org/2000/svg" xmlns:xlink="http://www.w3.org/1999/xlink" x="0px"
	 y="0px" width="450px" height="450px" viewBox="0 0 450 450" enable-background="new 0 0 450 450" xml:space="preserve">
<path fill="#0C8E72" d="M449.992,224.998c0,124.261-100.733,224.99-224.998,224.99C100.733,449.988,0,349.259,0,224.998
	S100.733,0,224.994,0C349.259,0,449.992,100.737,449.992,224.998z"/>
<g enable-background="new    ">
	<path fill="#FFFFFF" d="M114.776,141.793c0,8.551-1.496,15.938-4.489,22.158c-2.992,6.224-7.149,11.425-12.468,15.604
		c-5.321,4.182-11.638,7.388-18.952,9.617c-7.316,2.233-15.296,3.589-23.94,4.063v-17.242c4.75-0.475,9.57-1.258,14.464-2.352
		c4.892-1.092,9.333-2.754,13.323-4.987c3.99-2.23,7.268-5.201,9.833-8.906c2.565-3.704,3.894-8.357,3.99-13.965v-1.425h-39.9
		v-15.96h58.139V141.793z M112.923,188.104c4.845,0,9.38,0.784,13.609,2.352c4.226,1.567,7.909,3.849,11.043,6.84
		c3.134,2.992,5.604,6.626,7.41,10.901c1.803,4.274,2.707,9.119,2.707,14.534s-0.904,10.282-2.707,14.605
		c-1.806,4.321-4.275,7.979-7.41,10.973c-3.135,2.993-6.817,5.295-11.043,6.911c-4.229,1.613-8.764,2.423-13.609,2.423
		c-4.751,0-9.215-0.81-13.395-2.423c-4.182-1.616-7.837-3.918-10.972-6.911c-3.135-2.992-5.606-6.65-7.41-10.973
		c-1.806-4.323-2.708-9.19-2.708-14.605s0.902-10.26,2.708-14.534c1.804-4.275,4.275-7.909,7.41-10.901
		c3.135-2.991,6.791-5.271,10.972-6.84C103.708,188.888,108.172,188.104,112.923,188.104z M112.923,241.398
		c2.469,0,4.774-0.498,6.912-1.496c2.137-0.997,4.012-2.329,5.628-3.989c1.614-1.664,2.872-3.634,3.776-5.914
		c0.901-2.279,1.354-4.702,1.354-7.268c0-2.564-0.452-4.963-1.354-7.196c-0.904-2.229-2.162-4.179-3.776-5.842
		c-1.617-1.661-3.491-2.969-5.628-3.919c-2.138-0.948-4.442-1.425-6.912-1.425c-2.375,0-4.631,0.477-6.769,1.425
		c-2.137,0.95-3.99,2.258-5.557,3.919c-1.568,1.663-2.803,3.611-3.705,5.842c-0.904,2.233-1.354,4.632-1.354,7.196
		s0.45,4.987,1.354,7.268c0.902,2.28,2.137,4.25,3.705,5.914c1.567,1.66,3.42,2.992,5.557,3.989
		C108.292,240.9,110.548,241.398,112.923,241.398z M136.578,195.514v-15.247h-20.662v-15.105h20.662v-9.975h-17.812v-15.104h17.812
		v-11.686h16.815v67.117H136.578z"/>
	<path fill="#FFFFFF" d="M172.059,201.072v-16.388H277.08v16.388h-44.174v24.51h-17.813v-24.51H172.059z M175.337,160.46
		c10.544-0.188,19.095-1.661,25.649-4.417c6.555-2.755,10.876-6.413,12.967-10.973h-37.192v-15.247h38.617v-10.688h17.67v10.688
		h38.476v15.247h-37.192c2.089,4.56,6.412,8.218,12.968,10.973c6.555,2.756,15.15,4.229,25.791,4.417v15.817
		c-10.83,0-20.447-1.472-28.855-4.418c-8.406-2.943-15.082-6.982-20.021-12.112c-5.036,5.13-11.756,9.169-20.164,12.112
		c-8.407,2.946-17.979,4.418-28.713,4.418V160.46L175.337,160.46z M176.619,251.943v-40.896h16.815v25.079h79.656v15.817H176.619z"
		/>
	<path fill="#FFFFFF" d="M364.43,194.944c-8.55-1.329-15.698-3.705-21.445-7.125c-5.749-3.42-10.38-7.552-13.895-12.397
		c-3.326,4.847-7.813,8.979-13.466,12.397c-5.653,3.42-12.706,5.796-21.161,7.125v-17.1c5.131-0.948,9.381-2.424,12.754-4.417
		c3.371-1.995,6.008-4.395,7.908-7.196c1.899-2.802,3.229-5.865,3.99-9.191c0.76-3.324,1.141-6.791,1.141-10.401v-18.24h16.957
		v18.24c0,3.61,0.449,7.077,1.354,10.401c0.9,3.326,2.396,6.391,4.487,9.191c2.089,2.803,4.893,5.201,8.407,7.196
		c3.514,1.993,7.838,3.469,12.968,4.417V194.944L364.43,194.944z M306.148,251.943v-46.454h16.813v30.637h76.807v15.817H306.148z
		 M381.529,216.462v-53.579h-24.938v-15.816h24.938v-18.668h16.813v88.063H381.529z"/>
</g>
<g enable-background="new    ">
	<path fill="#FFFFFF" d="M61.415,299.904v17.805c-3.602,1.305-7.325,1.955-11.167,1.955c-8.679,0-14.339-3.396-16.981-10.188
		c-0.892-2.229-1.338-4.665-1.338-7.308c0-5.66,1.835-10.138,5.506-13.431c3.464-3.155,8.027-4.734,13.688-4.734
		c3.842,0,6.947,0.602,9.314,1.803l-1.544,5.248c-2.299-0.994-4.923-1.492-7.873-1.492c-3.877,0-6.938,1.105-9.185,3.318
		c-2.247,2.214-3.371,5.206-3.371,8.979c0,3.705,1.055,6.688,3.165,8.953s5.051,3.396,8.825,3.396c2.195,0,3.808-0.206,4.837-0.617
		v-8.388h-6.226v-5.301L61.415,299.904L61.415,299.904z"/>
	<path fill="#FFFFFF" d="M63.987,293.885h6.896l4.734,13.79l1.287,4.271l1.338-4.322l4.168-13.738h6.741l-6.535,17.599
		c-1.441,3.809-2.607,6.639-3.499,8.491c-1.613,3.396-3.345,5.883-5.197,7.461c-2.093,1.816-4.254,2.847-6.484,3.087l-1.543-5.506
		c1.612-0.378,3.07-1.115,4.374-2.212c1.304-1.099,2.298-2.333,2.985-3.705c0.206-0.445,0.309-0.737,0.309-0.875
		c0-0.206-0.086-0.55-0.257-1.029L63.987,293.885z"/>
	<path fill="#FFFFFF" d="M113.386,308.446H96.765c0,1.888,0.721,3.414,2.162,4.58c1.338,1.099,3.139,1.646,5.403,1.646
		c2.367,0,4.665-0.394,6.896-1.184l1.081,4.683c-2.642,1.1-5.575,1.646-8.799,1.646c-3.911,0-7.016-1.14-9.314-3.422
		c-2.299-2.28-3.448-5.429-3.448-9.442c0-3.943,1.063-7.169,3.19-9.674c2.195-2.641,5.18-3.962,8.954-3.962
		c3.43,0,6.106,1.184,8.027,3.551c1.818,2.264,2.728,5.18,2.728,8.747C113.644,306.439,113.557,307.385,113.386,308.446z
		 M96.765,303.609h10.96c0-1.475-0.412-2.728-1.235-3.756c-0.926-1.235-2.264-1.854-4.014-1.854c-1.646,0-2.968,0.584-3.962,1.749
		C97.52,300.917,96.937,302.203,96.765,303.609z"/>
	<path fill="#FFFFFF" d="M129.389,319.87c-3.74,0-6.759-1.209-9.057-3.628c-2.299-2.418-3.448-5.564-3.448-9.441
		c0-4.015,1.158-7.256,3.474-9.727c2.315-2.47,5.429-3.705,9.339-3.705c3.773,0,6.792,1.202,9.057,3.604
		c2.264,2.4,3.396,5.522,3.396,9.364c0,4.015-1.167,7.273-3.499,9.777C136.318,318.618,133.231,319.87,129.389,319.87z
		 M129.389,314.981c2.058,0,3.67-0.926,4.837-2.778c0.96-1.577,1.441-3.447,1.441-5.608c0-2.194-0.463-4.048-1.39-5.558
		c-1.098-1.853-2.693-2.779-4.785-2.779c-2.127,0-3.756,0.928-4.889,2.779c-0.926,1.51-1.389,3.396-1.389,5.66
		c0,2.161,0.463,4.014,1.389,5.558C125.736,314.073,127.331,314.981,129.389,314.981z"/>
	<path fill="#FFFFFF" d="M147.09,319.304v-17.753c0-0.857-0.035-2.085-0.103-3.681c-0.069-1.595-0.103-2.924-0.103-3.988h5.455
		l0.309,3.5c1.647-2.677,4.305-4.015,7.976-4.015c2.95,0,5.197,1.081,6.741,3.242c1.475,1.922,2.213,4.46,2.213,7.616v15.077h-6.227
		v-14.05c0-4.321-1.595-6.482-4.785-6.482c-1.132,0-2.153,0.353-3.062,1.055c-0.909,0.704-1.553,1.588-1.93,2.65
		c-0.172,0.584-0.257,1.234-0.257,1.955v14.872L147.09,319.304L147.09,319.304z"/>
	<path fill="#FFFFFF" d="M198.598,301.345v14.201c0,5.353-1.27,9.159-3.808,11.425c-2.23,1.988-5.403,2.983-9.52,2.983
		c-3.602,0-6.535-0.704-8.799-2.109l1.441-5.042c2.264,1.338,4.683,2.007,7.255,2.007c4.802,0,7.204-2.316,7.204-6.947v-2.007
		c-1.544,2.229-3.98,3.345-7.307,3.345c-3.259,0-5.884-1.233-7.873-3.705c-1.853-2.367-2.779-5.266-2.779-8.695
		c0-3.671,0.978-6.792,2.933-9.365c2.127-2.709,4.957-4.065,8.491-4.065c3.361,0,5.729,1.202,7.101,3.604l0.412-3.088h5.506
		C198.684,295.635,198.598,298.121,198.598,301.345z M192.372,308.189v-3.962c0-0.722-0.086-1.271-0.257-1.647
		c-0.79-2.744-2.521-4.116-5.197-4.116c-2.059,0-3.637,0.909-4.734,2.729c-0.926,1.439-1.389,3.241-1.389,5.402
		c0,2.059,0.463,3.809,1.389,5.249c1.063,1.544,2.642,2.314,4.734,2.314c2.573,0,4.288-1.269,5.146-3.808
		C192.269,309.802,192.372,309.082,192.372,308.189z"/>
	<path fill="#FFFFFF" d="M222.578,313.489l0.875,4.991c-1.921,0.927-4.322,1.39-7.204,1.39c-3.877,0-6.981-1.175-9.313-3.523
		c-2.333-2.351-3.5-5.516-3.5-9.494c0-4.082,1.278-7.351,3.834-9.803c2.555-2.452,5.874-3.681,9.957-3.681
		c2.332,0,4.442,0.431,6.329,1.287l-1.235,5.043c-1.476-0.721-3.122-1.081-4.94-1.081c-2.367,0-4.22,0.765-5.558,2.29
		c-1.338,1.526-2.007,3.456-2.007,5.789c0,2.264,0.677,4.144,2.033,5.635c1.354,1.492,3.198,2.238,5.532,2.238
		C219.095,314.57,220.828,314.21,222.578,313.489z"/>
	<path fill="#FFFFFF" d="M227.98,319.304v-36.793h6.226v14.563c0.892-1.063,1.903-1.921,3.036-2.572
		c1.441-0.755,2.898-1.133,4.374-1.133c2.915,0,5.163,1.115,6.741,3.346c1.371,1.989,2.059,4.547,2.059,7.667v14.924h-6.227v-13.895
		c0-4.426-1.613-6.639-4.838-6.639c-1.099,0-2.093,0.344-2.984,1.028c-0.893,0.688-1.527,1.527-1.904,2.521
		c-0.172,0.549-0.257,1.201-0.257,1.955v15.026L227.98,319.304L227.98,319.304z"/>
	<path fill="#FFFFFF" d="M279.129,293.885v21.869l0.257,3.552h-5.558l-0.258-3.5c-1.887,2.711-4.579,4.064-8.078,4.064
		c-5.832,0-8.748-3.688-8.748-11.063v-14.923h6.277v13.533c0,4.7,1.545,7.05,4.631,7.05c2.299,0,3.929-1.133,4.889-3.396
		c0.24-0.48,0.361-1.133,0.361-1.956v-15.23H279.129z"/>
	<path fill="#FFFFFF" d="M285.766,319.304v-17.753c0-0.857-0.033-2.085-0.103-3.681c-0.069-1.595-0.103-2.924-0.103-3.988h5.453
		l0.31,3.5c1.647-2.677,4.305-4.015,7.976-4.015c2.95,0,5.197,1.081,6.741,3.242c1.475,1.922,2.213,4.46,2.213,7.616v15.077h-6.227
		v-14.05c0-4.321-1.596-6.482-4.785-6.482c-1.132,0-2.153,0.353-3.062,1.055c-0.91,0.704-1.554,1.588-1.931,2.65
		c-0.172,0.584-0.258,1.234-0.258,1.955v14.872L285.766,319.304L285.766,319.304z"/>
	<path fill="#FFFFFF" d="M330.431,319.304v-34.94h6.227v29.434h14.203v5.508L330.431,319.304L330.431,319.304z"/>
	<path fill="#FFFFFF" d="M358.113,290.591c-1.063,0-1.93-0.324-2.599-0.978c-0.669-0.651-1.004-1.577-1.004-2.778
		c0-1.166,0.353-2.085,1.056-2.754c0.702-0.669,1.587-1.003,2.649-1.003c1.063,0,1.946,0.334,2.65,1.003
		c0.702,0.669,1.055,1.588,1.055,2.754s-0.369,2.084-1.105,2.753C360.077,290.257,359.177,290.591,358.113,290.591z
		 M361.355,319.304h-6.277v-25.422h6.277V319.304z"/>
	<path fill="#FFFFFF" d="M367.89,319.304v-17.753c0-0.857-0.033-2.085-0.103-3.681c-0.069-1.595-0.104-2.924-0.104-3.988h5.454
		l0.31,3.5c1.646-2.677,4.305-4.015,7.976-4.015c2.95,0,5.197,1.081,6.741,3.242c1.475,1.922,2.213,4.46,2.213,7.616v15.077h-6.227
		v-14.05c0-4.321-1.596-6.482-4.785-6.482c-1.132,0-2.153,0.353-3.063,1.055c-0.91,0.704-1.553,1.588-1.93,2.65
		c-0.173,0.584-0.258,1.234-0.258,1.955v14.872L367.89,319.304L367.89,319.304z"/>
	<path fill="#FFFFFF" d="M417.855,308.446h-16.621c0,1.888,0.721,3.414,2.161,4.58c1.338,1.099,3.14,1.646,5.402,1.646
		c2.367,0,4.665-0.394,6.896-1.184l1.08,4.683c-2.643,1.1-5.575,1.646-8.8,1.646c-3.91,0-7.016-1.14-9.313-3.422
		c-2.299-2.28-3.448-5.429-3.448-9.442c0-3.943,1.063-7.169,3.19-9.674c2.194-2.641,5.18-3.962,8.954-3.962
		c3.43,0,6.104,1.184,8.026,3.551c1.817,2.264,2.728,5.18,2.728,8.747C418.112,306.439,418.026,307.385,417.855,308.446z
		 M401.234,303.609h10.961c0-1.475-0.412-2.728-1.235-3.756c-0.926-1.235-2.264-1.854-4.014-1.854c-1.646,0-2.969,0.584-3.962,1.749
		C401.988,300.917,401.406,302.203,401.234,303.609z"/>
</g>
</svg>
