<?xml version="1.0" encoding="utf-8"?>
<svg xmlns="http://www.w3.org/2000/svg" xml:space="preserve" id="레이어_1" width="450" height="450" x="0" y="0" version="1.1">
  <style>
    .st1{fill:#fff}
  </style>
  <path fill="#3681b7" d="M450 225c0 124.3-100.7 225-225 225S0 349.3 0 225 100.7 0 225 0s225 100.7 225 225z"/>
  <path d="M225.7 77.4c1.4 0 2.7 1.8 4 5.4 1.3 3.6 2.4 9 3.3 16.3.9 7.3 1.4 13.3 1.4 17.9l14.8 10.8.7-5c.3-1.8.5-3 .7-3.6.2-.6.7-.8 1.4-.8h1.5c.9 0 1.4.5 1.6 1.4.2 1 .4 2.3.5 4l.8 9 11.2 8.3.7-5.1c.3-1.8.5-3 .7-3.5.2-.5.7-.8 1.4-.8h1.5c.9 0 1.4.5 1.6 1.6.2 1.1.4 2.5.5 4.2l.7 9 13.6 9.8c1.2.8 2 2.1 2.6 3.9l3.3 10.8-3.6-2.9-46.5-18-9.3-1.1c0 2.6-.6 9.4-1.9 20.3-1.3 11-2.2 18.1-2.7 21.4l18.3 12.6 1.5 9.1-21.6-7.2c-.6 4.5-1.5 6.8-2.5 6.8s-1.8-2.3-2.5-6.8l-21.6 7.2 1.4-9.1 18.4-12.6c-.6-4-1.6-11.4-2.8-22.1-1.2-10.7-1.8-17.2-1.8-19.6l-9.3 1.1-46.5 18-3.6 2.9 3.3-10.8c.2-.6.4-1.2.6-1.6s.4-.7.6-1c.2-.3 5.2-4.1 14.9-11.5l.4-7.2c.1-1.7.3-3 .5-4 .2-.9.8-1.4 1.7-1.4h1.4c.6 0 1 .1 1.4.4.3.3 1 2.7 1.9 7.1l11.2-8.3.4-7.2c.1-1.7.3-3.1.5-4.1.2-1.1.8-1.6 1.7-1.6h1.4c.9 0 1.5.3 1.7.9s.8 2.9 1.5 7l14.8-10.8c0-4.9.5-10.9 1.4-18.2.9-7.2 2-12.6 3.3-16.1.9-3.5 2.2-5.2 3.5-5.2z" class="st1"/>
  <path d="M157.5 57.5h137c37 0 48 117 48 117v112s-4 27-32 27h-14l52 77h-29l-10-13h-170l-10 15h-28l51-79h-14s-34-4-34-34v-109s11.3-113 53-113zm8 18s-39 17-39 78v34s0 27 27 27h141s28-2 28-28v-27s-6-84-45-84h-112zm-10.5 173c-10.8 0-19.5 8.7-19.5 19.5s8.7 19.5 19.5 19.5 19.5-8.7 19.5-19.5-8.7-19.5-19.5-19.5zm140.3.3c-10.8 0-19.5 8.7-19.5 19.5s8.7 19.5 19.5 19.5 19.5-8.7 19.5-19.5-8.8-19.5-19.5-19.5zm-127 86.5-15 25h145l-16-25h-114zm14.8-23.8-10.6 14.8h102l-11.3-14.8h-80.1z" class="st1"/>
</svg>