<svg xmlns="http://www.w3.org/2000/svg" width="1000" height="1000" viewBox="0 0 264.58333 264.58334"><circle cx="132.29167" cy="132.29167" r="128.4335" style="opacity:.993;fill:#fff;fill-opacity:1;stroke:#ad8605;stroke-width:7.71633;stroke-linecap:round;stroke-linejoin:round;stroke-miterlimit:4;stroke-dasharray:none;stroke-opacity:1"/><path d="M224.974 80.18h-81.116c-29.927 0-60.573 15.307-70.025 37.218L44.968 184.35h29.4l27.796-64.412c7.122-15.717 20.362-27.46 51.783-27.395h65.749z" style="fill:#023979;fill-opacity:1;stroke:none;stroke-width:.264583px;stroke-linecap:butt;stroke-linejoin:miter;stroke-opacity:1" transform="matrix(1.03743 0 0 1.03743 -7.731 -5.002)"/><path d="M218.526 95.115H156.34c-36.975.149-46.22 13.883-52.586 27.68L77.438 184.5h24.71c-3.934-2.625-4.703-8.056-.803-17.624l19.371-43.609c6.241-13.642 18.796-21.828 34.49-21.828h60.618z" style="fill:#b9b7b8;fill-opacity:1;stroke:none;stroke-width:.264583px;stroke-linecap:butt;stroke-linejoin:miter;stroke-opacity:1" transform="matrix(1.03743 0 0 1.03743 -7.731 -5.002)"/><path d="M133.568 184.483h23.987c16.823-.162 25.832-10.981 32.941-24.389l16.437-37.885h-47.44c-13.918 0-17.53 12.356-20.98 19.444h20.98l-9.154 21.782c-8.144 17.111-12.228 18.173-16.771 21.048z" style="fill:#b38e01;fill-opacity:1;stroke:none;stroke-width:.264583px;stroke-linecap:butt;stroke-linejoin:miter;stroke-opacity:1" transform="matrix(1.03743 0 0 1.03743 -7.731 -5.002)"/></svg>