<svg xmlns="http://www.w3.org/2000/svg" width="1000" height="1000" viewBox="0 0 264.58333 264.58334"><circle cx="132.29166" cy="132.29167" r="132.11478" style="opacity:.993;fill:#8fc31f;stroke:none;stroke-width:.353792;stroke-linecap:round;stroke-linejoin:round;fill-opacity:1"/><g style="font-style:normal;font-variant:normal;font-weight:900;font-stretch:normal;font-size:115.711px;font-family:&quot;Noto Sans CJK KR&quot;;letter-spacing:0;word-spacing:0;fill:#fff;fill-opacity:1;stroke:none;stroke-width:.192851"><path d="M87.8 161.682q-7.173-4.86-13.769-11.918-6.48-7.058-10.067-15.042-.925 3.124-3.24 7.058-2.314 3.818-5.67 7.753-3.24 4.05-7.29 7.868-3.933 3.703-7.868 6.595l-10.876-8.562q14.58-8.91 21.175-21.638 6.711-12.844 6.711-28.118V83.462h13.77v22.91q-.116 14.233 6.48 26.498 6.71 12.15 20.249 20.018zm31.937-82.039v103.562h-13.075v-61.327H85.949v-11.803h20.713V79.643ZM135.01 98.851h50.45v10.993h-50.45zm10.415-16.894H174.7v10.53h-29.275zm14.81 81.114q-10.529 0-16.893-6.48-6.248-6.596-6.248-17.241 0-10.761 6.48-17.24 6.48-6.48 16.662-6.48 10.067 0 16.547 6.48 6.595 6.479 6.595 17.24 0 10.645-6.364 17.241-6.364 6.48-16.778 6.48zm0-36.912q-4.743 0-7.636 3.818-2.893 3.819-2.893 9.373 0 5.67 2.893 9.488 2.893 3.703 7.637 3.703 4.628 0 7.521-3.703 3.009-3.818 3.009-9.488 0-5.554-3.009-9.373-2.893-3.818-7.521-3.818zm29.739 52.186V81.379h12.612V119.1h9.026V79.643h12.612v103.562h-12.612v-51.26h-9.026v46.4z" style="font-style:normal;font-variant:normal;font-weight:700;font-stretch:normal;font-size:115.711px;font-family:&quot;KoPubDotum Bold&quot;;text-align:center;text-anchor:middle;fill:#fff;fill-opacity:1;stroke-width:.192851"/></g></svg>