<svg enable-background="new 0 0 450 450" height="450" viewBox="0 0 450 450" width="450" xmlns="http://www.w3.org/2000/svg"><ellipse cx="224.793" cy="224.793" fill="#e0a134" rx="224.793" ry="224.787"/><g stroke-width="1.1781" transform="matrix(.84882348 0 0 .84882348 32.353994 46.866226)"><path d="m40.708 385.687v-42.33c3.037-.633 6.749-.949 11.136-.949 5.272 0 9.322.96 12.149 2.879 2.826 1.92 4.239 4.63 4.239 8.131 0 4.556-2.004 7.572-6.011 9.048 5.02 1.435 7.53 4.999 7.53 10.693 0 8.648-6.517 12.972-19.552 12.972-3.375 0-6.539-.148-9.491-.444zm7.53-36.825v11.199h3.986c2.278 0 4.154-.442 5.631-1.329 1.729-1.012 2.594-2.53 2.594-4.556 0-3.711-2.658-5.568-7.973-5.568-2.024 0-3.437.086-4.238.254zm0 17.273v13.541c.59.127 1.876.189 3.86.189 6.454 0 9.681-2.298 9.681-6.896 0-2.404-1.034-4.176-3.1-5.315-1.73-1.012-3.923-1.519-6.581-1.519z"/><path d="m103.35 354.429v26.893l.316 4.365h-6.833l-.316-4.303c-2.32 3.333-5.631 4.999-9.934 4.999-7.172 0-10.757-4.534-10.757-13.604v-18.351h7.72v16.642c0 5.78 1.898 8.669 5.695 8.669 2.826 0 4.83-1.393 6.011-4.177.295-.59.443-1.392.443-2.404v-18.729z"/><path d="m111.512 385.687v-21.829c0-1.055-.043-2.563-.127-4.524-.085-1.962-.126-3.596-.126-4.904h6.707l.38 4.303c2.025-3.29 5.293-4.935 9.808-4.935 3.627 0 6.391 1.328 8.289 3.986 1.813 2.362 2.721 5.483 2.721 9.364v18.539h-7.656v-17.273c0-5.315-1.961-7.973-5.885-7.973-1.392 0-2.647.433-3.765 1.297-1.118.865-1.909 1.952-2.373 3.259-.212.718-.316 1.519-.316 2.404v18.286z"/><path d="m167.572 340.446h7.72v36.446c0 3.417.104 6.35.316 8.795h-6.96l-.253-4.365c-1.941 3.375-5.273 5.062-9.998 5.062-4.135 0-7.425-1.603-9.871-4.809-2.278-3.037-3.417-6.728-3.417-11.073 0-4.556 1.18-8.416 3.543-11.579 2.615-3.417 6.095-5.125 10.44-5.125 4.133 0 6.96 1.181 8.479 3.543v-16.895zm0 31.764v-4.618c0-.844-.085-1.497-.253-1.962-.844-3.585-3.059-5.379-6.644-5.379-2.616 0-4.619 1.076-6.011 3.228-1.139 1.771-1.708 4.028-1.708 6.771 0 2.657.569 4.852 1.708 6.58 1.307 1.983 3.269 2.975 5.885 2.975 1.729 0 3.195-.496 4.397-1.487 1.202-.99 1.993-2.31 2.373-3.955.168-.635.253-1.352.253-2.153z"/><path d="m206.929 366.768v11.137c0 3.164.189 5.758.569 7.782h-7.087l-.506-3.227c-2.151 2.616-5.147 3.923-8.985 3.923-2.784 0-5.104-.843-6.96-2.531-1.856-1.687-2.784-3.943-2.784-6.77 0-4.514 2.109-7.783 6.327-9.808 3.079-1.434 6.981-2.151 11.706-2.151v-.443c0-3.332-2.046-4.999-6.138-4.999-3.037 0-5.78.823-8.226 2.468l-1.708-5.505c3.205-1.898 6.96-2.847 11.263-2.847 8.353.001 12.529 4.325 12.529 12.971zm-7.467 8.036v-4.113c-7.086 0-10.63 1.835-10.63 5.505 0 2.827 1.434 4.24 4.303 4.24 1.645 0 3.11-.548 4.397-1.646 1.287-1.096 1.93-2.424 1.93-3.986z"/><path d="m214.775 385.687v-21.829c0-1.055-.042-2.563-.127-4.524-.085-1.962-.126-3.596-.126-4.904h6.707l.38 4.303c2.025-3.29 5.294-4.935 9.808-4.935 3.627 0 6.391 1.328 8.289 3.986 1.813 2.362 2.721 5.483 2.721 9.364v18.539h-7.656v-17.273c0-5.315-1.961-7.973-5.885-7.973-1.392 0-2.647.433-3.765 1.297-1.118.865-1.909 1.952-2.373 3.259-.212.718-.316 1.519-.316 2.404v18.286z"/><path d="m278.112 363.605v17.464c0 6.58-1.562 11.263-4.683 14.047-2.742 2.445-6.644 3.67-11.705 3.67-4.43 0-8.037-.865-10.82-2.595l1.771-6.201c2.784 1.646 5.758 2.468 8.922 2.468 5.905 0 8.858-2.847 8.858-8.542v-2.468c-1.898 2.743-4.894 4.113-8.985 4.113-4.008 0-7.234-1.519-9.682-4.556-2.277-2.911-3.416-6.475-3.416-10.693 0-4.514 1.202-8.353 3.606-11.517 2.615-3.332 6.095-4.998 10.44-4.998 4.134 0 7.045 1.477 8.732 4.429l.506-3.797h6.771c-.21 2.152-.315 5.211-.315 9.176zm-7.656 8.415v-4.872c0-.886-.106-1.561-.316-2.024-.972-3.375-3.101-5.063-6.392-5.063-2.53 0-4.471 1.118-5.82 3.354-1.139 1.771-1.709 3.986-1.709 6.644 0 2.531.57 4.683 1.709 6.454 1.307 1.898 3.248 2.848 5.82 2.848 3.164 0 5.273-1.56 6.328-4.683.253-.674.38-1.56.38-2.658z"/><path d="m305.384 385.687v-42.963h7.656v36.193h17.464v6.77z"/><path d="m339.425 350.381c-1.309 0-2.373-.4-3.195-1.202-.823-.801-1.234-1.94-1.234-3.417 0-1.434.433-2.563 1.298-3.386.863-.822 1.95-1.233 3.258-1.233s2.394.411 3.259 1.233c.864.823 1.298 1.952 1.298 3.386 0 1.435-.454 2.563-1.361 3.385-.909.822-2.017 1.234-3.323 1.234zm3.986 35.306h-7.72v-31.258h7.72z"/><path d="m351.446 385.687v-21.829c0-1.055-.043-2.563-.127-4.524-.085-1.962-.126-3.596-.126-4.904h6.707l.379 4.303c2.025-3.29 5.294-4.935 9.808-4.935 3.628 0 6.392 1.328 8.289 3.986 1.813 2.362 2.722 5.483 2.722 9.364v18.539h-7.656v-17.273c0-5.315-1.962-7.973-5.885-7.973-1.393 0-2.647.433-3.765 1.297-1.119.865-1.909 1.952-2.373 3.259-.212.718-.316 1.519-.316 2.404v18.286z"/><path d="m412.887 372.337h-20.438c0 2.32.886 4.198 2.658 5.632 1.645 1.351 3.859 2.024 6.644 2.024 2.91 0 5.736-.484 8.479-1.455l1.329 5.758c-3.249 1.351-6.855 2.024-10.82 2.024-4.809 0-8.627-1.401-11.452-4.207-2.827-2.806-4.24-6.676-4.24-11.611 0-4.851 1.308-8.816 3.924-11.896 2.698-3.248 6.368-4.872 11.01-4.872 4.218 0 7.508 1.455 9.87 4.365 2.235 2.784 3.354 6.37 3.354 10.757-.003 1.013-.108 2.174-.318 3.481zm-20.439-5.949h13.478c0-1.813-.506-3.354-1.519-4.618-1.139-1.52-2.784-2.278-4.936-2.278-2.024 0-3.648.718-4.872 2.151-1.223 1.435-1.94 3.017-2.151 4.745z"/><g enable-background="new" transform="translate(69.583 -4.436)"><path d="m100.996 328.78 1.835-6.645c3.29 1.814 6.707 2.721 10.25 2.721 2.151 0 3.944-.421 5.378-1.265 1.519-1.013 2.278-2.468 2.278-4.366 0-1.729-.759-3.228-2.278-4.492-1.055-.76-2.764-1.54-5.125-2.342-7.635-2.784-11.453-7.002-11.453-12.655 0-4.049 1.539-7.17 4.619-9.364 2.741-1.982 6.158-2.974 10.25-2.974 4.007 0 7.424.759 10.25 2.277l-2.025 6.518c-2.489-1.434-5.315-2.151-8.479-2.151-1.856 0-3.459.401-4.809 1.202-1.435.929-2.151 2.194-2.151 3.797 0 1.604.886 3.017 2.657 4.239 1.054.718 2.848 1.561 5.378 2.531 3.458 1.351 6.032 2.869 7.72 4.556 2.235 2.193 3.354 4.978 3.354 8.353 0 4.429-1.688 7.804-5.062 10.123-2.869 1.898-6.539 2.848-11.01 2.848-4.68-.001-8.54-.971-11.577-2.911z"/><path d="m162.246 299.736v26.893l.316 4.365h-6.833l-.316-4.303c-2.32 3.333-5.631 4.999-9.934 4.999-7.172 0-10.757-4.534-10.757-13.604v-18.351h7.72v16.642c0 5.78 1.898 8.669 5.695 8.669 2.826 0 4.83-1.393 6.011-4.177.295-.59.443-1.392.443-2.404v-18.729z"/><path d="m174.077 295.687c-1.308 0-2.373-.4-3.196-1.202-.822-.801-1.233-1.94-1.233-3.417 0-1.434.432-2.563 1.297-3.386.864-.822 1.951-1.233 3.259-1.233 1.307 0 2.394.411 3.259 1.233.864.823 1.297 1.952 1.297 3.386 0 1.435-.454 2.563-1.36 3.385-.909.823-2.016 1.234-3.323 1.234zm3.986 35.307h-7.72v-31.258h7.72z"/><path d="m186.099 330.994v-21.829c0-1.055-.042-2.563-.127-4.524-.085-1.962-.126-3.596-.126-4.904h6.707l.38 4.303c2.025-3.29 5.293-4.935 9.808-4.935 3.627 0 6.391 1.328 8.289 3.986 1.813 2.362 2.721 5.483 2.721 9.364v18.539h-7.656v-17.274c0-5.315-1.961-7.973-5.885-7.973-1.392 0-2.647.433-3.765 1.297-1.118.865-1.909 1.952-2.373 3.259-.212.718-.316 1.519-.316 2.404v18.286h-7.657z"/></g></g><g stroke-width="1.14354" transform="matrix(.87447832 0 0 .87447832 27.803827 61.94836)"><path d="m50.532 194.135v-16.372h104.925v16.372h-43.28v22.494h-17.795v-22.494zm4.556 46.27v-38.013h16.799v22.209h79.584v15.804zm.142-72.894v-51.964h16.8v10.25h61.076v-10.25h16.799v51.964zm16.8-15.802h61.076v-10.678h-61.076z"/><path d="m255.541 181.179v-9.254h-78.445v-54.954h59.652v15.803h-42.568v23.349h61.361v-39.151h16.799v17.511h17.512v15.803h-17.512v30.895h-16.799zm-22.209-3.417c4.84 0 9.371.761 13.596 2.278 4.223 1.519 7.901 3.726 11.033 6.62 3.133 2.896 5.6 6.406 7.403 10.535 1.802 4.128 2.705 8.805 2.705 14.023 0 5.221-.903 9.916-2.705 14.094-1.804 4.176-4.271 7.71-7.403 10.606-3.132 2.895-6.811 5.126-11.033 6.691-4.225 1.566-8.756 2.35-13.596 2.35-4.748 0-9.208-.783-13.383-2.35-4.178-1.565-7.83-3.797-10.962-6.691-3.132-2.896-5.601-6.431-7.403-10.606-1.804-4.178-2.705-8.873-2.705-14.094 0-5.219.901-9.896 2.705-14.023 1.802-4.129 4.271-7.64 7.403-10.535s6.785-5.102 10.962-6.62c4.175-1.517 8.635-2.278 13.383-2.278zm0 51.538c2.467 0 4.769-.498 6.904-1.494 2.135-.997 4.008-2.303 5.623-3.916 1.613-1.614 2.87-3.512 3.773-5.694.9-2.183 1.353-4.507 1.353-6.976 0-2.372-.452-4.628-1.353-6.763-.903-2.136-2.16-4.033-3.773-5.695-1.615-1.659-3.488-2.965-5.623-3.915-2.136-.947-4.438-1.424-6.904-1.424-2.374 0-4.627.477-6.764 1.424-2.135.95-3.986 2.256-5.552 3.915-1.566 1.662-2.801 3.56-3.702 5.695-.903 2.135-1.353 4.391-1.353 6.763 0 2.469.449 4.793 1.353 6.976.901 2.183 2.136 4.08 3.702 5.694 1.566 1.613 3.417 2.919 5.552 3.916 2.137.996 4.39 1.494 6.764 1.494z"/><path d="m365.162 183.457c-8.541-1.328-15.686-3.701-21.426-7.118-5.744-3.417-10.371-7.546-13.881-12.386-3.324 4.84-7.809 8.969-13.455 12.386-5.647 3.417-12.695 5.79-21.141 7.118v-17.084c5.125-.947 9.371-2.42 12.742-4.413 3.367-1.993 6.001-4.39 7.9-7.189 1.898-2.799 3.227-5.859 3.986-9.184.759-3.32 1.139-6.784 1.139-10.393v-18.223h16.942v18.223c0 3.608.45 7.072 1.353 10.393.9 3.324 2.396 6.385 4.484 9.184 2.088 2.8 4.887 5.196 8.4 7.189 3.51 1.993 7.83 3.466 12.955 4.413v17.084zm-58.228 56.948v-46.413h16.799v30.609h76.738v15.804zm75.312-35.45v-53.53h-24.914v-15.804h24.914v-18.649h16.801v87.983z"/><path d="m171.687 58.7065v40.86h-17.796v-40.86h-42.141v-16.372h104.925v16.372zm41.002-31.89c-11.674-.759-21.569-3.179-29.684-7.261-8.115-4.08-14.5-9.063-19.148-14.948-4.652 5.886-11.034 10.868-19.149 14.948-8.115 4.082-18.009 6.502-29.684 7.261v-17.227c7.212-.378 13.358-1.566 18.437-3.56 5.077-1.992 9.205-4.389 12.386-7.189 3.179-2.798 5.503-5.859 6.976-9.183 1.47-3.321 2.207-6.5 2.207-9.538v-5.41h17.654v5.41c0 3.038.734 6.217 2.207 9.538 1.471 3.323 3.795 6.385 6.976 9.183 3.179 2.801 7.308 5.197 12.386 7.189 5.076 1.993 11.223 3.182 18.437 3.56v17.227z"/><path d="m270.774-27.5685c4.649 0 8.992.783 13.027 2.35 4.033 1.565 7.545 3.893 10.535 6.976 2.99 3.086 5.361 6.883 7.119 11.39 1.755 4.509 2.634 9.705 2.634 15.589 0 5.887-.879 11.083-2.634 15.59-1.758 4.509-4.129 8.307-7.119 11.39-2.989 3.085-6.502 5.435-10.535 7.047-4.035 1.615-8.377 2.42-13.027 2.42-4.747 0-9.16-.805-13.24-2.42-4.082-1.612-7.617-3.962-10.606-7.047-2.99-3.083-5.363-6.881-7.118-11.39-1.757-4.507-2.634-9.703-2.634-15.59 0-5.884.876-11.08 2.634-15.589 1.755-4.507 4.128-8.304 7.118-11.39 2.99-3.083 6.524-5.41 10.606-6.976 4.079-1.567 8.492-2.35 13.24-2.35zm-25.057 127.136v-44.989h16.799v29.186h76.737v15.804h-93.536zm25.057-71.613c2.087 0 4.058-.449 5.909-1.353 1.851-.9 3.488-2.182 4.912-3.844 1.423-1.659 2.538-3.677 3.346-6.051.805-2.371 1.21-5.029 1.21-7.973 0-2.847-.405-5.456-1.21-7.83-.808-2.371-1.922-4.413-3.346-6.122-1.424-1.708-3.061-3.012-4.912-3.915-1.851-.9-3.822-1.353-5.909-1.353-4.462 0-8.186 1.758-11.176 5.268-2.99 3.513-4.484 8.164-4.484 13.952 0 5.887 1.495 10.561 4.484 14.023 2.989 3.468 6.713 5.198 11.176 5.198zm50.256 36.02v-87.841h16.799v87.841z"/></g></svg>