<svg xmlns="http://www.w3.org/2000/svg" width="1000" height="1000" viewBox="0 0 264.58333 264.58334"><circle cx="132.29166" cy="132.29167" r="132.11478" style="opacity:.993;fill:#56ab2d;stroke:none;stroke-width:.353792;stroke-linecap:round;stroke-linejoin:round;fill-opacity:1"/><g style="font-style:normal;font-variant:normal;font-weight:900;font-stretch:normal;font-size:115.711px;font-family:&quot;Noto Sans CJK KR&quot;;letter-spacing:0;word-spacing:0;fill:#fff;fill-opacity:1;stroke:none;stroke-width:.192851"><path d="M79.354 145.136q18.63 0 28.465 5.554 9.95 5.438 9.95 14.464 0 9.14-9.834 14.58-9.836 5.438-28.581 5.438-18.861 0-28.696-5.439-9.72-5.438-9.72-14.58 0-9.025 9.835-14.463 9.836-5.554 28.58-5.554zm0 9.95q-10.993 0-17.357 2.546-6.364 2.546-6.364 7.406 0 5.207 6.364 7.521 6.364 2.43 17.357 2.43 10.877 0 17.24-2.43 6.48-2.314 6.48-7.521 0-4.86-6.48-7.406-6.363-2.545-17.24-2.545zm47.789-15.852H31.68v-10.992h24.646v-13.423q-7.29-2.43-11.108-6.595-3.818-4.166-3.818-9.72 0-8.678 10.067-14.117Q61.65 78.95 79.354 78.95t27.77 5.438q10.183 5.439 10.183 14.117 0 5.438-3.818 9.604-3.819 4.166-10.761 6.596v13.538h24.415zM69.17 117.596v10.646h20.713v-10.646q-2.43.348-5.092.463-2.661.116-5.438.116-2.777 0-5.323-.116-2.545-.115-4.86-.463zm10.183-29.043q-10.646 0-17.241 2.777-6.48 2.661-6.48 7.405 0 4.513 6.596 7.059 6.595 2.545 17.125 2.545 10.414 0 17.01-2.545 6.71-2.546 6.71-7.059 0-4.744-6.595-7.405-6.595-2.777-17.125-2.777zM163.591 136.226q-6.48 0-11.686-2.199-5.092-2.198-8.679-6.017-3.587-3.702-5.438-8.678-1.851-5.091-1.851-10.761 0-5.67 1.85-10.645 1.852-4.976 5.44-8.795 3.586-3.702 8.678-5.9 5.09-2.2 11.686-2.2 6.48 0 11.572 2.2 5.207 2.198 8.678 5.9 3.587 3.819 5.438 8.795 1.967 4.975 1.967 10.645t-1.967 10.761q-1.851 4.976-5.438 8.678-3.587 3.819-8.794 6.017-5.091 2.199-11.456 2.199zm0-44.086q-7.058 0-10.876 4.744-3.703 4.744-3.703 11.687 0 6.827 3.818 11.687 3.819 4.86 10.761 4.86 6.943 0 10.762-4.86 3.818-4.86 3.818-11.687 0-6.943-3.818-11.687-3.819-4.744-10.762-4.744zm56.699-12.497v76.37h-12.96v-76.37Zm-66.534 101.594q-1.851 0-2.546-.694-.578-.694-.578-2.545v-31.474h13.19v23.605h58.898v11.108z" style="font-style:normal;font-variant:normal;font-weight:700;font-stretch:normal;font-size:115.711px;font-family:&quot;KoPubDotum Bold&quot;;text-align:center;text-anchor:middle;fill:#fff;fill-opacity:1;stroke-width:.192851"/></g></svg>