<svg enable-background="new 0 0 450 450" height="450" viewBox="0 0 450 450" width="450" xmlns="http://www.w3.org/2000/svg"><circle cx="225" cy="225" fill="#b7c452" r="225"/><g fill="#fff"><path d="m122.74345 311.71323v-89.84375h16.01562v89.84375zm-21.15886-16.66667q-18.098953-8.59375-28.710932-25.19531-3.059896 6.57552-12.109375 15.95052-8.984374 9.3099-15.885416 13.02083l-11.848958-11.78385q13.736979-5.98958 22.526041-17.70833 8.789062-11.78386 8.789062-23.89323v-18.22917h16.40625v17.70834q0 12.10937 9.049479 22.78645 9.114583 10.61198 22.135419 14.32292zm-43.880202 48.04688v-42.83854h16.406249v29.10156h67.057293v13.73698z"/><path d="m257.9648 284.95542v-30.40365h-26.69271v-13.21614h26.69271v-19.46615h16.01562v63.08594zm-25.58594-1.36719q-19.14062-10.15625-28.125-23.4375-3.64583 6.96615-11.91406 14.84375-8.26823 7.8776-16.79688 11.91406l-10.93749-11.19791q14.64843-6.31511 22.91666-16.66667 8.33333-10.41667 8.33333-22.65625v-11.84896h15.69011v11.84896q0 11.45833 8.85416 21.22396 8.91927 9.76562 21.67969 13.60677zm-39.64844 61.84896v-34.24479h65.23438v-7.61719h-65.23438v-13.73698h81.25v33.91927h-65.10416v8.00781h68.29427v13.67188z"/><path d="m391.29812 311.71323v-48.5026h-26.43229v-13.86719h26.43229v-27.47396h16.01563v89.84375zm-25.0651-16.66667q-17.83854-8.52864-28.64583-25.71614-3.71094 7.35677-12.69531 16.73177-8.91927 9.375-15.29948 12.76041l-11.91406-11.32812q13.73698-6.11979 22.52604-18.03385 8.85416-11.97917 8.85416-24.02344v-18.22917h16.21094v17.70834q0 12.23958 9.24479 23.04687 9.24479 10.80729 22.13542 14.45313zm-39.97396 48.04688v-42.83854h16.34115v29.10156h67.12239v13.73698z"/><path d="m168.19209 145.65458q-19.33594 0-30.59896-7.94271-11.26302-7.94271-11.26302-21.09375 0-12.76041 11.19791-20.50781 11.26302-7.747396 30.40365-7.747396 19.53125 0 30.66406 7.682292 11.19792 7.682294 11.19792 20.572914 0 13.08594-11.06771 21.09375-11.06771 7.94271-30.53385 7.94271zm-.26042-44.27083q-12.30469 0-18.61979 4.10156-6.31511 4.03646-6.31511 11.13281 0 7.03125 6.31511 11.13281 6.38021 4.03646 18.61979 4.03646 12.10937 0 18.48958-4.03646 6.44531-4.03645 6.44531-11.13281 0-7.09635-6.44531-11.13281-6.38021-4.10156-18.48958-4.10156zm8.39844 68.03385v42.51302h-16.40625v-42.51302h-50v-13.86719h116.53645v13.86719z"/><path d="m332.5801 211.93062v-125.585935h16.14583v125.585935zm-51.82291-30.53386q-14.97396 0-24.02344-11.78385-9.04948-11.78385-9.04948-31.77083 0-20.3125 8.98437-31.90104 9.04948-11.588543 24.08855-11.588543 14.97395 0 23.89322 11.718753 8.98438 11.65364 8.98438 31.77083 0 20.18229-8.91927 31.90104-8.91927 11.65364-23.95833 11.65364zm0-73.17708q-7.48698 0-12.30469 8.00782-4.81771 8.00781-4.81771 21.74479 0 13.54166 4.94792 21.61458 4.94791 8.07292 12.17448 8.07292 7.16145 0 12.10937-7.94271 4.94792-8.00781 4.94792-21.74479 0-13.73698-4.81771-21.74479-4.75261-8.00782-12.23958-8.00782z"/></g></svg>