<?xml version="1.0" encoding="utf-8"?>
<!-- Generator: Adobe Illustrator 21.1.0, SVG Export Plug-In . SVG Version: 6.00 Build 0)  -->
<svg version="1.1" id="레이어_1" xmlns="http://www.w3.org/2000/svg" xmlns:xlink="http://www.w3.org/1999/xlink" x="0px"
	 y="0px" width="450px" height="450px" viewBox="0 0 450 450" style="enable-background:new 0 0 450 450;" xml:space="preserve">
<style type="text/css">
	.st0{fill:#FDA600;}
	.st1{fill:#FFFFFF;}
</style>
<circle class="st0" cx="225" cy="225" r="225"/>
<g>
	<path class="st1" d="M137.2,178.1c-4,0.7-7.7,1.4-11,2c-3.3,0.6-6.9,1.1-10.9,1.5c-3.9,0.4-8.5,0.7-13.8,0.9
		c-5.3,0.2-11.8,0.3-19.7,0.3H47.2v-14.1h34.6c11.6-0.1,21.8-0.5,30.8-1.3c9-0.8,17.2-1.9,24.6-3.4V178.1z M119.9,127.3
		c0,4.4-0.9,8.4-2.7,12c-1.8,3.6-4.2,6.8-7.1,9.4c-2.9,2.7-6.3,4.8-10.2,6.2c-3.9,1.4-8,2.2-12.2,2.2c-4.4,0-8.5-0.7-12.4-2.1
		c-3.9-1.4-7.3-3.4-10.1-6c-3-2.6-5.3-5.8-7-9.5c-1.7-3.7-2.5-7.8-2.5-12.3c0-4.2,0.8-8.1,2.5-11.7c1.6-3.6,3.9-6.7,6.8-9.5
		c2.9-2.6,6.3-4.7,10.2-6.2s8.1-2.3,12.6-2.3s8.7,0.7,12.5,2.2c3.9,1.4,7.3,3.5,10.3,6.1c2.9,2.6,5.2,5.7,6.9,9.4
		C119,118.9,119.9,122.9,119.9,127.3z M104.6,127.3c0-4.4-1.7-8.1-5-11.1c-3.4-3-7.3-4.5-11.9-4.5c-4.5,0-8.4,1.5-11.8,4.5
		c-3.4,3-5,6.7-5,11.1c0,4.8,1.7,8.7,5,11.7c3.4,3,7.3,4.6,11.8,4.6s8.4-1.5,11.8-4.6C102.9,135.8,104.6,131.9,104.6,127.3z
		 M154.9,213.4h-15V86h15V213.4z"/>
	<path class="st1" d="M241.1,149.7l-10.5,10.2l-22.4-21c-4.5,4.7-9.4,8.8-14.7,12.5c-5.3,3.6-10.8,6.7-16.5,9.1L166.8,149
		c5.9-2.3,11.2-5.1,16-8.3c4.8-3.2,9-6.5,12.7-10.1c3.7-3.5,6.8-7.2,9.2-10.8c2.4-3.7,4.2-7.2,5.3-10.6h-34.4V95.1h53.5
		c-0.6,5.9-1.8,11.5-3.8,16.9c-2,5.4-4.5,10.4-7.6,15.2L241.1,149.7z M271.9,191.2c0,4-0.9,7.8-2.6,11.3c-1.7,3.5-4.1,6.6-7.1,9.2
		c-2.9,2.5-6.3,4.5-10.1,6c-3.8,1.5-7.8,2.2-12,2.2c-4.6,0-8.8-0.7-12.7-2.2c-3.9-1.5-7.3-3.5-10.1-6c-2.9-2.6-5.2-5.7-6.8-9.2
		c-1.6-3.5-2.4-7.3-2.4-11.3c0-3.9,0.9-7.6,2.6-11c1.7-3.4,4-6.4,6.9-8.9c3-2.5,6.4-4.5,10.3-6c3.9-1.5,8-2.2,12.3-2.2
		c4.2,0,8.2,0.7,12,2.2c3.8,1.5,7.2,3.5,10.1,6c3,2.5,5.3,5.5,7.1,8.9C271,183.7,271.9,187.3,271.9,191.2z M256.5,191.2
		c0-4.3-1.7-7.7-5-10.4c-3.4-2.6-7.1-3.9-11.3-3.9c-4.8,0-8.8,1.4-12,4.2c-3.2,2.8-4.8,6.2-4.8,10.1c0,4.1,1.6,7.6,4.8,10.4
		c3.2,2.8,7.2,4.3,12,4.3c4.3,0,8.1-1.4,11.4-4.1C254.8,199.2,256.5,195.6,256.5,191.2z M273.3,162.4h-15v-30.9h-26.6v-14.1h26.6V86
		h15V162.4z"/>
	<path class="st1" d="M405.2,173.6H353v42.3h-15.1v-42.3h-52.4v-14.3h119.7V173.6z M378,149.8h-67.8v-57h14.8v16.5h38.1V92.8H378
		V149.8z M363.2,135.8v-12.3h-38.1v12.3H363.2z"/>
	<path class="st1" d="M114,235.1c-1.3,15.7-6.7,29.3-16.1,40.9c-9.4,11.6-21.9,20.4-37.4,26.6l-9.9-10.6c12.8-5,23-11.5,30.6-19.3
		c7.6-7.8,12.4-15.6,14.5-23.5H59v-14.1H114z M150.5,331.1c0,4-0.8,7.8-2.5,11.3s-4,6.6-6.9,9.2c-2.9,2.6-6.3,4.7-10.1,6.2
		c-3.9,1.5-8,2.2-12.4,2.2c-4.7,0-8.9-0.7-12.8-2.2c-3.9-1.5-7.3-3.5-10.1-6c-2.9-2.6-5.1-5.7-6.7-9.2c-1.6-3.5-2.4-7.3-2.4-11.3
		c0-4,0.8-7.8,2.5-11.3s4-6.5,7-9c2.9-2.5,6.3-4.5,10.1-6c3.9-1.4,8-2.2,12.3-2.2c4.2,0,8.2,0.7,12.1,2.1c3.9,1.4,7.3,3.4,10.3,5.9
		c2.9,2.5,5.2,5.5,7,9C149.6,323.2,150.5,327,150.5,331.1z M135.1,331.4c0-4.3-1.6-7.8-4.8-10.6c-3.2-2.8-7.1-4.1-11.9-4.1
		c-4.7,0-8.6,1.4-11.8,4.3c-3.2,2.8-4.8,6.2-4.8,10.2c0,4.1,1.5,7.6,4.6,10.5c3,2.9,7.1,4.3,12.3,4.3c4.8,0,8.7-1.3,11.8-4
		C133.6,339.3,135.1,335.8,135.1,331.4z M154.2,304.6h-14.8v-13.7h-27.6v-14h27.6v-12.5h-27.6v-14.1h27.6V226h14.8V304.6z"/>
	<path class="st1" d="M245.2,292.5l-10.5,10.6l-22.5-21.8c-4.5,4.8-9.4,9-14.6,12.7c-5.3,3.7-10.8,6.7-16.5,9.2l-10.2-11.3
		c5.9-2.3,11.2-5.2,16.1-8.5c4.9-3.3,9.1-6.8,12.7-10.6c3.6-3.7,6.7-7.5,9.1-11.3c2.4-3.8,4.2-7.4,5.3-10.8h-34.4v-14.1h53.5
		c-0.6,6-1.8,11.7-3.8,17.3c-2,5.6-4.6,10.8-7.8,15.6L245.2,292.5z M278.9,356.9h-69.7V310h15.1v32.6h54.6V356.9z M277.4,316.7h-15
		v-43.5h-25.8V259h25.8v-33h15V316.7z"/>
	<path class="st1" d="M360.8,287.4l-9.1,11.8l-22.5-14.7c-4.8,4.2-9.7,7.5-14.8,9.9c-5.1,2.4-10.1,4.4-15.2,6l-8.7-11.5
		c10.4-3.2,18.7-7,24.9-11.6c6.3-4.6,10.9-9.4,14-14.4H297v-13.6h54c-0.7,3.8-2.1,8-4,12.5c-1.9,4.5-4.4,8.4-7.5,11.8L360.8,287.4z
		 M343,245.1c-1.7,0.2-4.6,0.3-8.8,0.5c-4.2,0.1-8.9,0.1-14.3-0.1c-5-0.4-9.1-1.4-12.3-3c-3.1-1.6-5.1-2.8-5.9-3.6l4.6-10.9
		c0.5,0.2,1.2,0.5,2.1,0.8c0.9,0.4,2.1,0.8,3.4,1.3c1.2,0.4,2.6,0.7,4.2,1c1.6,0.3,3.3,0.5,5.2,0.5c4.8,0.2,9.2,0.2,13.2,0.1
		c4.1-0.1,6.9-0.3,8.6-0.5V245.1z M394.5,358.1h-68.7v-35h50.4v-6.9h-51.1v-13.7h66.5v34.3h-50.1v6.9h53.1V358.1z M394.4,298.5h-15
		v-22.5h-25.1v-14h25.1v-36h15V298.5z"/>
</g>
</svg>
